<svg version="1.2" xmlns="http://www.w3.org/2000/svg" viewBox="0 0 1600 800" width="800" height="400">
	<title>SalemHR logo</title>
	<style>
		.s0 { fill: #9155fd } 
		.s1 { fill: #000000 } 
	</style>
	<g id="logo">
		<path id="rectangle 1" class="s0" d="m160.6 266.1l50.9 50.1-101.6 103.2-50.9-50.1z"/>
		<path id="rectangle 2" class="s0" d="m171.6 380l50.9 50.1-101.7 103.2-50.8-50.1z"/>
	</g>
	<path id="SalemHR" class="s1" aria-label="SalemHR"  d="m367.8 499.1c51.6 0 76.6-25.8 76.6-56 0-66.3-105-43.3-105-76.6 0-11.4 9.5-20.7 34.3-20.7 16 0 33.3 4.7 50 14.2l12.9-31.7c-16.7-10.6-40-16-62.7-16-51.3 0-76.1 25.5-76.1 56.2 0 67.1 105 43.9 105 77.7 0 11.1-10 19.4-34.8 19.4-21.7 0-44.4-7.8-59.6-18.9l-14.2 31.5c16 12.4 44.9 20.9 73.6 20.9zm158.4-144c-22.2 0-44.7 6-59.9 16.8l14.5 28.1c10-8 25.2-12.9 39.9-12.9 21.7 0 32 10.1 32 27.4h-32c-42.3 0-59.6 17-59.6 41.5 0 24 19.4 42.1 51.9 42.1 20.4 0 34.8-6.7 42.3-19.4v17.3h37.7v-79.2c0-42.1-24.5-61.7-66.8-61.7zm-3.1 115.9c-14.2 0-22.7-6.7-22.7-16.8 0-9.3 5.9-16.3 24.7-16.3h27.6v14.2c-4.6 12.7-16.2 18.9-29.6 18.9zm106.3 25h40.2v-191.4h-40.2zm213.6-68.9c0-44.7-31.5-72-72.3-72-42.3 0-74 29.9-74 71.5 0 41.2 31.2 71.4 79.2 71.4 25 0 44.4-7.7 57.3-22.4l-21.4-23.2c-9.6 9-20.2 13.4-34.9 13.4-21.1 0-35.8-10.6-39.7-27.9h105c0.3-3.3 0.8-7.7 0.8-10.8zm-72-41.6c18.1 0 31.2 11.4 34.1 28.9h-68.4c2.8-17.8 16-28.9 34.3-28.9zm276.6-30.4c-20.9 0-39 8.5-50.1 22.7-9.8-15.2-26.3-22.7-45.6-22.7-17.8 0-33.3 6.2-43.6 18.1v-16h-38.5v138.8h40.3v-69.7c0-24.8 12.6-36.4 30.4-36.4 16.8 0 26.3 10.3 26.3 32.8v73.3h40.3v-69.7c0-24.8 12.6-36.4 30.7-36.4 16.2 0 26.3 10.3 26.3 32.8v73.3h40.2v-79.5c0-42.3-23.7-61.4-56.7-61.4zm219.5-39.7v71.2h-82v-71.2h-41.8v180.6h41.8v-74.1h82v74.1h41.8v-180.6zm244.6 180.6l-40.5-58.1c23.5-10 37.2-29.9 37.2-57 0-40.5-30.2-65.5-78.5-65.5h-78.1v180.6h41.8v-50.3h36.3 2.1l34.8 50.3zm-45.6-115.1c0 19.6-12.9 31.5-38.5 31.5h-34v-63h34c25.6 0 38.5 11.6 38.5 31.5z"/>
</svg>